<?xml version="1.0" encoding="UTF-8"?>
<svg id="Layer_1" data-name="Layer 1" xmlns="http://www.w3.org/2000/svg" viewBox="0 0 1920 1080">
  <defs>
    <style>
      .cls-1, .cls-2, .cls-3, .cls-4, .cls-5, .cls-6, .cls-7, .cls-8 {
        stroke-miterlimit: 10;
      }

      .cls-1, .cls-2, .cls-3, .cls-4, .cls-5, .cls-6, .cls-8 {
        stroke: #000;
      }

      .cls-1, .cls-4, .cls-5 {
        fill: none;
      }

      .cls-3 {
        fill: #ddd;
      }

      .cls-4 {
        stroke-width: 8px;
      }

      .cls-5, .cls-6 {
        stroke-width: 6px;
      }

      .cls-6, .cls-8 {
        fill: #6b6b6b;
      }

      .cls-7 {
        fill: #fff;
        stroke: #fff;
      }
    </style>
  </defs>
  <polygon class="cls-2" points="875.39 910.41 1588.5 521.69 1588.5 489.52 1066.4 170.5 1032.46 170.5 323.14 494.88 317.78 527.05 829.82 902.37 875.39 910.41"/>
  <polygon class="cls-3" points="905.46 893.18 1589 520.57 1589 489.74 1088.54 183.94 1056.01 183.94 376.1 494.88 370.96 525.71 861.77 885.47 905.46 893.18"/>
  <polygon class="cls-2" points="908.03 841.79 442.91 505.15 1067.35 209.64 1535.04 505.15 908.03 841.79"/>
  <polygon class="cls-7" points="913 824.16 475.39 507.44 1062.89 229.4 1502.91 507.44 913 824.16"/>
  <polygon class="cls-2" points="529.53 508.92 1058.89 251.95 1100 277.64 575.78 542.32 529.53 508.92"/>
  <path class="cls-2" d="M871.3,439.54c7.71-2.57,254.4-136.19,254.4-136.19,0,0,203.01,131.06,200.44,136.19-2.57,5.14-264.68,143.9-264.68,143.9l-190.16-143.9Z"/>
  <polygon class="cls-2" points="832.75 457.52 1051.18 627.12 1356.97 465.23 1421.21 503.78 920.12 781.31 622.03 568.02 832.75 457.52"/>
  <polygon class="cls-8" points="546.71 511.29 1076.07 254.32 1117.19 280.02 592.96 544.7 546.71 511.29"/>
  <path class="cls-8" d="M888.48,441.91c7.71-2.57,254.4-136.19,254.4-136.19,0,0,203.01,131.06,200.44,136.19-2.57,5.14-264.68,143.9-264.68,143.9l-190.16-143.9Z"/>
  <polygon class="cls-8" points="849.94 459.9 1068.36 629.5 1374.16 467.61 1438.4 506.15 937.31 783.68 639.22 570.4 849.94 459.9"/>
  <path class="cls-5" d="M934.79,455.39c1.93-7.45,5.65-16.47,13.52-19.99,6.6-2.95,10.01.7,17.52-1.43,12.9-3.67,10.74-16.71,24.32-24.58,11.95-6.93,19.48-.22,31.91-7.55,9.13-5.38,6.23-10.56,15.71-18.74,10.85-9.36,17.46-5.95,34.45-14.42,12.94-6.45,12.68-10.21,28.27-20.56,7.68-5.1,19.56-12.03,35.98-17.99"/>
  <path class="cls-4" d="M598.95,530.62c2.73-9.44,7.8-20.81,17.97-25.02,8.53-3.53,12.75,1.26,22.41-1.2,16.59-4.22,14.31-20.93,31.91-30.48,15.5-8.41,24.86.42,40.99-8.48,10.91-6.02,17.13-15.85,20.72-23.35"/>
  <path class="cls-4" d="M754.93,448.3c2.73-9.44,7.8-20.81,17.97-25.02,8.53-3.53,12.75,1.26,22.41-1.2,16.59-4.22,14.31-20.93,31.91-30.48,15.5-8.41,24.86.42,40.99-8.48,10.91-6.02,17.13-15.85,20.72-23.35"/>
  <path class="cls-4" d="M929.67,360.08c2.73-9.44,7.8-20.81,17.97-25.02,8.53-3.53,12.75,1.26,22.41-1.2,16.59-4.22,14.31-20.93,31.91-30.48,15.5-8.41,24.86.42,40.99-8.48,10.91-6.02,17.13-15.85,20.72-23.35"/>
  <path class="cls-1" d="M960.43,475.32c5.55,1.12,13.75,1.8,20.56-2.57,6.57-4.22,6.12-9.46,12.85-17.99.98-1.24,10.5-13.02,25.7-17.99,13.65-4.46,18.74.88,28.27-5.14,5.96-3.76,4.51-6.19,12.85-15.42,4.62-5.11,14.06-15.56,28.27-20.56,12.39-4.36,15.54-.05,23.13-5.14,8.83-5.93,5.77-12.57,15.42-23.13,8.14-8.9,17.96-12.55,25.7-15.42,10.38-3.85,19.55-4.89,25.7-5.14"/>
  <path class="cls-1" d="M998.98,503.59c5.3-14.51,12.5-20.41,17.99-23.13,7.2-3.58,9.47-.7,23.13-5.14,8.59-2.79,16.8-5.46,23.13-12.85,4.13-4.82,3.78-7.36,7.71-10.28,7.26-5.41,14.07,1.29,20.56-2.57,8.09-4.82,2.23-16.89,10.28-23.13,8.07-6.25,18.33,2.5,28.27-5.14,3.93-3.02,6.19-7.36,7.71-10.28,4.21-8.08,1.96-10.64,5.14-15.42,4.86-7.3,15.23-8.99,23.13-10.28,9.67-1.58,12.62.35,17.99-2.57,5.68-3.09,8.66-8.65,10.28-12.85"/>
  <path class="cls-1" d="M1073.5,560.12c1.27-7.46,4.31-17.92,12.85-23.13,8.92-5.44,15.6-.12,28.27-5.14,11.13-4.41,17.61-13.13,23.13-20.56,11.72-15.78,7.2-21.3,15.42-28.27,11.72-9.94,21.83.55,46.25-7.71,5.53-1.87,22.57-7.63,33.41-23.13,6.8-9.73,4.92-14.36,10.28-20.56,6.19-7.15,19.51-13.46,51.39-7.71"/>
  <path class="cls-1" d="M1076.07,647.49c2.6-6.06,7.16-13.79,15.42-17.99,7.61-3.87,11.19-1.1,20.56-5.14,10.69-4.61,9.32-9.63,20.56-15.42,10.74-5.53,13.9-1.92,23.13-7.71,9.32-5.85,7.08-10.16,15.42-15.42,11.92-7.51,19.32-.47,30.84-7.71,9.72-6.11,6.05-12.15,15.42-17.99,12.67-7.9,23.11.81,33.41-7.71,6.39-5.28,3.08-9.23,10.28-15.42,7.59-6.53,12.54-3.25,25.7-10.28,8.59-4.59,6.95-6.24,15.42-10.28,9.54-4.55,12.57-2.9,20.56-7.71,6.91-4.16,5.54-5.93,12.85-10.28,7.46-4.44,10.59-3.6,17.99-7.71,4.73-2.62,9.01-6.05,12.85-10.28"/>
  <path class="cls-8" d="M939.88,770.83c2.84-8.54,8.01-19.09,17.99-23.13,5.62-2.27,8.18-.63,15.42-2.57,12.49-3.35,13.06-10.45,25.7-17.99,15.78-9.41,22.18-2.68,35.98-12.85,8.85-6.52,6.57-9.55,15.42-15.42,12.28-8.15,17.88-3.12,30.84-10.28,13.02-7.2,10.2-13.85,23.13-20.56,12.67-6.58,17.17-1.11,28.27-7.71,12.01-7.14,8.89-14.82,20.56-23.13,13.03-9.27,19.55-1.56,35.98-10.28,15.07-7.99,12.52-16.04,28.27-23.13,12.4-5.58,15.77-1.4,25.7-7.71,11.63-7.39,9.57-14.76,20.56-20.56,10.42-5.5,14.19.11,25.7-5.14,11.65-5.31,10.09-12.11,23.13-20.56,8.79-5.69,10.78-3.44,28.27-10.28,2.66-1.04,15.74-6.23,30.84-15.42,8.41-5.12,19.26-12.58,30.84-23.13"/>
  <path class="cls-6" d="M667.49,575.54c8.01-11.76,15.24-14.89,20.56-15.42,5.88-.58,9.14,2.04,15.42,0,4.46-1.45,4.87-3.44,12.85-10.28,7.76-6.64,13.12-11.14,20.56-12.85,5.27-1.21,9.89-.63,12.85,0"/>
  <path class="cls-6" d="M762.57,529.28c1.45-5.56,4.27-12.25,10.28-15.42,5.61-2.96,8.86-.13,17.99-2.57,9.32-2.5,15.67-8.05,17.99-10.28,6.75-6.49,4.82-9.24,10.28-12.85,6.45-4.26,10.93-1.59,20.56-5.14,5.87-2.16,10.14-5.35,12.85-7.71"/>
  <path class="cls-8" d="M700.89,601.23c1.78-8.91,5.68-20.69,15.42-25.7,7.09-3.64,10.63-.29,23.13-2.57,4.6-.84,23.13-4.23,33.41-17.99,6.33-8.48,3.73-13.12,10.28-17.99,6.89-5.12,11.17-1.03,23.13-5.14,9.88-3.4,16.62-9.52,23.13-15.42,9.16-8.31,9.15-11.41,15.42-15.42,8.73-5.57,18.58-5.84,25.7-5.14"/>
  <path class="cls-8" d="M729.16,624.36c1.36-5.38,4.11-12.43,10.28-15.42,5.72-2.77,9.28.41,15.42-2.57,6.54-3.18,5.32-8.18,12.85-15.42,5.54-5.33,11.45-7.68,17.99-10.28,12.74-5.07,17.05-2.88,20.56-7.71,3.83-5.26.35-10.15,5.14-15.42,2.64-2.9,5.91-3.86,10.28-5.14,9.08-2.66,12.63-.19,17.99-2.57,3.26-1.44,7.27-4.71,10.28-12.85"/>
  <path class="cls-8" d="M862.78,534.42c.6-8.82,2.82-11.95,5.14-12.85,4.09-1.59,8.12,3.87,12.85,2.57,4.21-1.16,6.44-6.97,7.71-12.85"/>
  <path class="cls-8" d="M754.86,639.78c1.62-6.12,4.99-14.8,12.85-20.56,3.27-2.39,5.4-2.89,20.56-7.71,20.9-6.65,23.13-7.72,25.7-10.28,7.04-7.02,3.48-12.12,10.28-17.99,7.63-6.58,13.39-1.25,25.7-7.71,6.43-3.37,10.84-7.96,17.99-15.42,8.47-8.83,8.41-11.28,12.85-12.85,8.85-3.14,14.47,4.69,23.13,2.57,4.42-1.08,10.29-4.91,15.42-17.99"/>
  <path class="cls-8" d="M819.1,683.46c5.42-7.36,11.53-12.29,17.99-15.42,9.68-4.69,14.03-2.37,28.27-7.71,9.55-3.58,16.4-6.15,20.56-12.85,4.65-7.49.66-11.66,5.14-17.99,2.58-3.64,6.2-5.5,25.7-10.28,23.75-5.82,24.72-4.61,28.27-7.71,9.03-7.9,5.48-18.16,15.42-25.7,5.22-3.96,11.2-4.93,15.42-5.14"/>
  <path class="cls-8" d="M844.8,706.59c1.9-9.61,5.76-15.03,10.28-17.99,8.74-5.72,15.95.4,28.27-5.14,6.03-2.71,10.02-6.95,17.99-15.42,9.88-10.5,7.74-11.77,12.85-15.42,11.8-8.42,20.6.23,35.98-7.71,7.43-3.84,12.74-9.66,17.99-15.42,6.98-7.65,7.5-10.73,12.85-15.42,4.27-3.74,11.34-8.26,23.13-10.28"/>
</svg>